<?xml version="1.0" encoding="utf-8"?>
<!-- Generator: Adobe Illustrator 26.0.3, SVG Export Plug-In . SVG Version: 6.00 Build 0)  -->
<svg version="1.0" id="katman_1" xmlns="http://www.w3.org/2000/svg" xmlns:xlink="http://www.w3.org/1999/xlink" x="0px" y="0px"
	 viewBox="0 0 257.7 204.4" style="enable-background:new 0 0 257.7 204.4;" xml:space="preserve">
<style type="text/css">
	.st0{fill:#00AA13;}
	.st1{fill:#FFFFFF;}
</style>
<g id="logo_x2F_32_x2F_text_x2F_color_x2F_gocar">
	<g id="Group_00000080206268184172638630000004850922064321614990_" transform="translate(-0.000000, 3.225504)">
		<circle id="Oval_00000158716471803830565380000004226548144649067149_" class="st0" cx="53" cy="99" r="22.9"/>
		<path id="Shape_00000134217379099421301040000016048170428717278617_" class="st1" d="M62.1,109.5c-1.8,0-3.3-1.5-3.3-3.3
			s1.5-3.3,3.3-3.3c1.8,0,3.3,1.5,3.3,3.3S63.9,109.5,62.1,109.5z M44,109.5c-1.8,0-3.3-1.5-3.3-3.3s1.5-3.3,3.3-3.3
			s3.3,1.5,3.3,3.3S45.8,109.5,44,109.5z M71.1,99.9c0.1,0.5,0,2.3,0,2.9c-0.4,1.5-1.7,2.6-3.3,2.8l-0.5,0.1c-0.2-2.8-2.6-5-5.4-4.9
			c-2.8,0.1-5.1,2.4-5.1,5.2c0,0.2,0,0.3,0,0.5c-1.2,0-2.4,0-3.8,0c-1.4,0-2.7,0-3.8,0c0-0.1,0-0.3,0-0.5c0-2.8-2.2-5.1-5-5.2
			c-2.8-0.1-5.2,2-5.4,4.8c-0.2,0-0.3-0.1-0.5-0.1c-2.3-0.5-3.2-1.6-3.3-3.3c-0.1-1.4,0-2.8,0.2-4.2c0.2-0.8,0.8-1.5,1.7-1.7
			c0.6-0.1,1.1-0.3,1.7-0.3l2.7-4.9c1.1-1.9,3.1-3.2,5.3-3.4c2.7-0.2,5.3-0.2,8,0c2.1,0.2,4,1.3,5.1,3.1l3.2,5.1
			c1.8,0.2,3.6,0.4,5.3,0.8C69.8,97,70.9,98.3,71.1,99.9z M43.5,92.3l-1.5,2.9h7.1v-4.8l-2.9,0c-1,0-1.9,0.5-2.4,1.4l0,0L43.5,92.3z
			 M52.1,95.2h7.1l-0.9-1.5l-1.2-1.9c-0.2-0.3-0.4-0.5-0.6-0.7c-0.5-0.4-1.1-0.6-1.7-0.6l-2.7,0V95.2z"/>
		<path id="Shape_00000123399802773228439550000003034154188729752460_" d="M93.6,110.4c1.9,2.8,5.2,4.3,8.5,4.2c4,0,6.9-2.5,6.9-6
			v-1.8H109c-2.2,2.1-5.2,3.2-8.2,3.1c-4.8,0.1-9.3-2.3-11.8-6.5c-2.5-4.1-2.5-9.3-0.1-13.4c2.4-4.2,6.9-6.7,11.7-6.7
			c3.1-0.2,6.2,0.9,8.4,3h0.1v-2.5h6.8v24.8c0,7.2-5.7,12.2-13.7,12.2c-5.2,0.3-10.3-2-13.6-6L93.6,110.4z M108.8,95
			c0-2.9-3.3-5.5-6.9-5.5c-4.6,0-7.7,2.8-7.7,7c-0.1,2,0.6,3.9,2,5.3c1.4,1.4,3.4,2.1,5.4,1.9c4,0,7.2-2.5,7.2-5.6V95z M133.7,83
			c8.3,0,14.3,5.9,14.3,13.4s-6,13.4-14.3,13.4c-5,0.3-9.8-2.2-12.4-6.4s-2.6-9.7,0-14C123.9,85.1,128.7,82.7,133.7,83L133.7,83z
			 M133.7,89.2c-4,0-7.2,3.3-7.1,7.2c0,4,3.2,7.2,7.2,7.2c4,0,7.2-3.2,7.2-7.2c0.1-1.9-0.6-3.8-2-5.2
			C137.5,89.8,135.7,89.1,133.7,89.2z M164.9,83c3-0.1,5.9,0.8,8.4,2.4c2.3,1.5,3.9,3.8,4.7,6.5l-6.6,1.9c-0.8-2.8-3.5-4.7-6.4-4.6
			c-3.9,0.1-7,3.3-7,7.2c0,3.9,3.1,7.1,7,7.2c3,0.2,5.6-1.7,6.4-4.6l6.6,1.9c-0.7,2.7-2.4,5-4.7,6.5c-2.5,1.7-5.4,2.5-8.4,2.4
			c-4.9,0.2-9.6-2.3-12.2-6.5c-2.5-4.2-2.5-9.5,0-13.8C155.3,85.3,160,82.8,164.9,83L164.9,83z M191.1,94c4.7-0.6,6-1.3,6-2.6
			c0-1.7-1.8-2.7-4.5-2.7c-2.9-0.2-5.6,1.7-6.3,4.6l-6.7-1.4c1-5.2,6.3-8.9,12.9-8.9c7.4,0,12,3.8,12,10v16.2h-6.4v-2.8H198
			c-2.2,2.4-5.3,3.7-8.6,3.5c-5.6,0-9.5-3.1-9.5-7.6C180,97.5,183.1,95.1,191.1,94z M197.8,96.7L197.8,96.7
			c-0.7,0.9-2.1,1.4-5.5,2.1c-4.2,0.8-5.7,1.6-5.7,3.1c0,1.5,1.2,2.2,3.9,2.2c4.1,0,7.2-1.9,7.2-4.3V96.7z M209.1,83.7h6.7v2.4h0.1
			c2-2,4.7-3.1,7.5-2.9c1.4,0,2.8,0.3,4.2,0.7l-1.5,6.4c-1.2-0.3-2.4-0.5-3.7-0.5c-3.9,0-6.1,2.6-6.1,7.8v11.6h-7.1V83.7z"/>
	</g>
</g>
</svg>
