<?xml version="1.0" encoding="utf-8"?>
<!-- Generator: Adobe Illustrator 26.0.3, SVG Export Plug-In . SVG Version: 6.00 Build 0)  -->
<svg version="1.0" id="katman_1" xmlns="http://www.w3.org/2000/svg" xmlns:xlink="http://www.w3.org/1999/xlink" x="0px" y="0px"
	 viewBox="0 0 257.7 204.4" style="enable-background:new 0 0 257.7 204.4;" xml:space="preserve">
<style type="text/css">
	.st0{fill:#00AA13;}
	.st1{fill:#FFFFFF;}
</style>
<g id="logo_x2F_32_x2F_text_x2F_color_x2F_goride-">
	<g id="Group" transform="translate(-0.000000, 1.182837)">
		<circle id="Oval" class="st0" cx="44.3" cy="104" r="21.1"/>
		<path id="Shape" class="st1" d="M34.6,115.4c-2.4,0-4.4-2-4.4-4.4s2-4.4,4.4-4.4s4.4,2,4.4,4.4S37,115.4,34.6,115.4z M59.3,111.3
			c0,2.4-1.9,4.3-4.3,4.4c-2.4,0.1-4.4-1.7-4.5-4.1c0-0.1,0-0.2,0-0.3c0-2.4,2-4.4,4.4-4.4c0.1,0,0.1,0,0.2,0
			C57.4,107,59.3,108.9,59.3,111.3L59.3,111.3z M56.2,104.5c-0.2,0.1-0.4,0.2-0.6,0.2h0c-0.1,0-0.2,0-0.3,0c-0.1,0-0.1,0-0.2,0
			c-0.2,0-0.4,0-0.6,0h0c-0.4,0-0.9,0-1.3,0.1c-1,0.2-2,0.8-2.7,1.5c0,0,0,0,0,0c-0.1,0.1-0.2,0.1-0.2,0.2c-1.1,1.1-1.7,2.7-1.7,4.2
			c0,0.6,0.1,1.2,0.3,1.8c-1.1,0.1-2.2,0.2-3.3,0.2c-1.7,0-3.3-0.1-5-0.3c0.2-0.5,0.2-1.1,0.2-1.7c0-0.1,0-0.2,0-0.3c0,0,0,0,0,0
			c0-0.7-0.1-1.3-0.4-2c-0.6-1.6-1.8-2.8-3.4-3.4c-0.1,0-0.2-0.1-0.2-0.1c0,0-0.1,0-0.1-0.1c-0.1,0-0.1,0-0.2-0.1
			c-0.1,0-0.1,0-0.2,0c-0.5-0.2-1.1-0.2-1.6-0.2c-1.1,0-2.2,0.3-3.1,0.8c-0.4,0.2-1,0.2-1.3-0.1c-0.5-0.4-0.6-1.1-0.2-1.6
			c0.4-0.6,0.9-1.3,1.1-1.5l-0.1-0.1c-0.4-0.4-0.7-0.9-0.6-1.5s0.5-1,1-1.2c4.4-1.3,9-1.5,13.4-0.5c0.6,0.2,1,0.7,1,1.2
			c0,0.5,0,1.1-0.1,1.6c-0.1,0.6-0.4,1.2-0.8,1.6c-0.5,0.4-1.1,0.6-1.7,0.6c-0.4,1-0.4,2.1,0.1,3.1c0.7,1,1.9,1.5,3.1,1.3
			c1.2-0.2,2.2-1.1,2.4-2.3c0.9-2.6,1.2-5.1-0.9-12c-0.8,0.1-1.6,0.1-2.3-0.2c-0.4-0.1-0.6-0.4-0.6-0.8c0-0.2,0-0.3,0.1-0.4
			c0.2-0.3,0.6-0.5,1-0.4c0.5,0.1,0.9,0.1,1.4,0.1l-0.3-0.7c-0.2-0.4-0.1-0.9,0.2-1.2s0.8-0.4,1.2-0.3c1.4,0.2,2.6,1.1,3.1,2.5
			c0.8,2.5-0.7,1.9-1.2,1.8c3.2,1.8,5.6,4.8,6.4,8.4C57.2,103.3,56.9,104.1,56.2,104.5L56.2,104.5z"/>
		<path id="Shape_00000103986999356605812210000008380965966176218517_" d="M82.1,114.5c1.8,2.6,4.8,4,7.9,3.9
			c3.7,0,6.4-2.4,6.4-5.5v-1.7h-0.1c-2,2-4.8,3-7.6,2.8c-4.4,0.1-8.6-2.2-10.9-6c-2.3-3.8-2.3-8.6-0.1-12.4
			c2.2-3.9,6.3-6.2,10.8-6.2c2.9-0.2,5.7,0.8,7.8,2.7h0.1v-2.3h6.3v22.9c0,6.7-5.3,11.3-12.7,11.3c-4.9,0.3-9.5-1.8-12.6-5.6
			L82.1,114.5z M96.1,100.3c0-2.7-3-5.1-6.4-5.1c-4.3,0-7.1,2.6-7.1,6.4c-0.1,1.8,0.6,3.6,1.9,4.9c1.3,1.3,3.1,1.9,5,1.7
			c3.7,0,6.6-2.3,6.6-5.2V100.3z M119.1,89.2c7.7,0,13.3,5.5,13.3,12.4c0,7-5.6,12.4-13.3,12.4c-4.6,0.3-9-2-11.5-6
			c-2.4-4-2.4-8.9,0-12.9C110.1,91.2,114.5,88.9,119.1,89.2L119.1,89.2z M119.1,95c-3.7,0-6.6,3-6.6,6.7c0,3.7,3,6.6,6.7,6.6
			c3.7,0,6.6-3,6.6-6.7c0.1-1.8-0.6-3.5-1.9-4.8C122.7,95.5,120.9,94.9,119.1,95z M136,89.9h6.2v2.3h0.1c1.8-1.8,4.3-2.8,6.9-2.7
			c1.3,0,2.6,0.2,3.9,0.6l-1.4,5.9c-1.1-0.3-2.3-0.5-3.4-0.5c-3.6,0-5.7,2.4-5.7,7.2v10.7H136V89.9z M155.2,79.4h6.8V86h-6.8V79.4z
			 M155.4,89.9h6.6v23.5h-6.6V89.9z M178,89.2c2.8-0.1,5.5,0.8,7.6,2.5h0.1V81h6.6v32.4h-6.1v-2.3h-0.1c-2.1,2.1-5,3.2-7.9,3
			c-3.4,0.2-6.7-1.1-9.1-3.4c-2.4-2.4-3.7-5.6-3.6-9c-0.1-3.3,1.3-6.5,3.6-8.9C171.4,90.4,174.7,89.1,178,89.2L178,89.2z
			 M185.7,100.1c0-2.8-3.1-5.1-6.7-5.1c-1.8-0.1-3.6,0.5-5,1.8c-1.3,1.3-2.1,3-2,4.9c0,4,2.8,6.6,7,6.6c3.7,0,6.7-2.3,6.7-5.2V100.1
			z M208.6,89.2c3.4-0.2,6.7,1.1,9.2,3.5c2.4,2.4,3.7,5.7,3.6,9.1v1.9h-19.1c0.2,3.1,2.8,5,6.7,5c2.8,0,5.5-1.3,7.2-3.5l4.1,4.1
			c-2.9,3.2-7,4.9-11.3,4.7c-8.2,0-13.2-4.9-13.2-12.4c-0.1-3.4,1.3-6.6,3.7-9C201.9,90.3,205.2,89,208.6,89.2z M214.9,99.1
			c-0.3-2.8-2.8-4.6-6.3-4.6c-3.5,0-6,1.8-6.3,4.6H214.9z"/>
	</g>
</g>
</svg>
